<svg
  xmlns="http://www.w3.org/2000/svg"
  xmlns:xlink="http://www.w3.org/1999/xlink"
  version="1.1"
  id="torn-edge"
  x="0px"
  y="0px"
  width="4000px"
  height="80px"
  viewBox="-1000 386 500 10"
  enable-background="new -1694 386 4000 20"
  xml:space="preserve"
  >
      <path
        fill="#ffffff"
        d="M305.5,392.563c-0.463-0.021-0.492,1.855-0.803,1.694c-0.126-0.149-0.958-0.531-1.073-0.694  c-1.391-0.062-2.573,1.957-3.406,0.854c-1.872-1.389-3.916,0.807-5.519-1.078c-1.775,0.349-3.581,0.41-5.208,1.604  c-0.126,0.418-0.293,1.115-0.408,1.312c-0.592,1.588-0.753,1.757-3.387,0.417c-1.077-0.417-2.792,1.143-4.283-0.416  c-0.782-0.722-2.584,0-3.796,0.05c-1.083,0.662-3.468,0.057-4.315-0.603c-0.219-0.211-0.41-0.547-0.469-0.694  c-0.295-0.41-0.727-0.432-1.376,0.005c-0.411,0.317-1.107,0.948-1.509,1.241c-0.261,0.051-0.844,1.05-1.118,0.502  c-1.657-0.507-3.25-0.688-4.537-0.501c-1.984-1.567-3.107-0.523-4.836-0.048c-0.494,0.028-0.957,0.044-1.218,0.047  c-0.868,0.003-2.04,0-3.343-1.073c-0.023-0.025-0.148-0.156-0.172-0.182c-0.547-0.583-1.32-0.585-2.071-0.583  c-1.666,0.091-2.907,0.453-3.703,0.77c-0.041,0.008-0.082,0.015-0.123,0.023c-0.006-0.007-0.013-0.016-0.019-0.022  c-0.204-0.269-0.429-0.655-0.554-0.771c-0.889-2.065-1.596-2.073-2.141-1.192c-0.992,1.214-3.534,2.196-4.843,1.675  c-1.392-0.459-2.488-0.486-2.859-1.335c-0.801-0.959-1.116-0.959-2.456,0.803c-0.632,0.35-1.421,0.969-2.154,0.448  c-1.168-0.399-2.779-0.771-3.465-1.802c-2.302,1.398-3.68-0.636-4.975-1.279c-0.771-0.647-1.586-1.179-2.275-1.224  c-0.587-0.009-1.254,0-1.817,1.013c-1.269,0.841-1.983,0.844-2.608,0.817c-0.696-0.874-1.47-1.577-2.989-1.833l-8.241,1.693  l-3.185-2.295l-4.023,0.604c-0.798,0-1.568,0.034-2.399,0.478c-2.022,0.931-2.442-0.701-3.407-0.479  c-0.94,0.001-1.899,0.001-2.615,0.008c-0.637,0.344-1.227,0.569-2.601,0.555c-1.196-0.211-1.505-0.785-2.381-0.563  c-1.445,0.07-2.95,0.437-3.845,0.437c-1.835,0-3.119-0.659-4.451-0.436c-1.05,0.012-2.358-0.619-2.854-0.505  c-0.86,0.487-2.808,0.169-3.626-0.944c-0.185-0.184-0.58-0.184-0.74,0c-0.147,0.041-0.304,0.28-0.6,0.604  c-1.587,1.971-2.649,1.801-3.874,0.817c-2.198,0.04-3.382,0.027-4.809-0.858c-1.494,0.647-2.444,0.591-3.603-0.211  c-1.835-0.97-2.909,0.337-5.036,0.592c-1.366,0.267-1.931,0.502-3.847,0.505c-1.042-0.83-2.604-1.14-4.624-0.238  c-0.137-0.127-0.268-0.366-0.448-0.733c-0.307-0.352-0.47-0.634-0.624-0.789c-1.587,0.113-2.966,0.479-3.844,1.128  c-2.167,0.632-3.137-1.432-4.451-0.931c-2.335,0.733-3.36,0.664-4.054,2.365c-0.405,0.296-0.896,0.395-1.396,0.282  c-0.847-0.662-1.593-1.071-2.064-1.084c-1.833,0.18-2.926,0.003-3.761-0.111c-1.176-0.367-2.618,0.11-2.829,0.814  c-0.192,0.689-0.769,1.084-1.072,1.104c-1.645-1.584-3.368-1.796-4.625-0.666c-2.044,0.451-3.083,0.226-4.625-0.663  c-1.378-0.465-2.265,0.521-3.52-0.471c-1.774-0.189-2.902,0.246-5.094,0.696c-2.873,0.832-5.713,1.136-8.861,1.673  c-1.275-0.537-2.944-1.278-3.726-2.123c-0.403-0.155-0.642-0.044-0.755,0.28c-0.817,1.659-2.896,1.801-3.959,2.364  c-1.167,0.269-2.614-0.14-3.014-1.042c-0.616-0.151-1.112-0.785-2.565-0.758c-1.279,0.689-2.235,0.365-3.535-0.845  c-0.875-0.155-1.531,0.141-1.713,0.787c-0.552,0.799-0.941,0.999-2.172,1.336c-1.679,0.79-2.858,0.48-4.883-0.535  c-0.584-0.002-1.021,0.007-1.322,0.889c-0.012,0.028-0.024,0.042-0.024,0.085c-0.121,0.929-0.356,1.091-1.189,1.092  c-1.825,0.005-2.191-1.347-3.417-0.501c-1.832,0.496-2.8,0.5-3.807,0.501c-0.938-0.001-1.856-0.02-2.466-0.613  c-0.29-1.043-1.076-1.451-2.021-1.451c-1.786,0.479-2.822,0.141-3.535-0.109c-0.884-0.155-1.782,0.094-2.251,0.106  c-0.255,0.849-0.991,1.68-1.63,2.018c-0.743,0.045-1.466,0.048-2.154,0.049c-0.314-2.066-0.663-2.075-1.299-1.29  c-0.08,0.339-0.254,0.678-0.558,0.96c-0.294-0.17-0.562-0.353-0.824-0.563c-1.418,0.579-2.408,0.479-3.511-0.282  c-1.623-0.882-1.801-0.845-2.374,0.804c-0.245-0.212-0.348-0.381-0.448-0.579c-0.949-0.958-1.659-0.958-2.798,0.805  c-0.214,0.349-1.077,0.969-1.798,0.461c-1.728-0.314-2.474-0.785-3.346-1.814c-2.724,1.49-3.818-0.561-5.651-1.265  c-0.704-0.648-1.073-1.13-1.504-1.142c-0.675-0.026-1.919,0.001-2.58,0.915c-0.839,0.929-1.121,0.93-1.99,0.873  c-1.167-0.915-2.085-1.635-2.906-1.792l-8.223,1.597l-3.383-2.294l-3.918,0.701c-0.927,0.001-1.613,0.008-3.026,0.379  c-1.192,0.932-1.942-0.687-3.393-0.381c-0.958,0.002-1.374,0.003-1.889,0.004c-0.693,0.252-1.883,0.491-3.182,0.477  c-0.502-0.225-1.179-0.786-2.168-0.48c-1.702,0.016-2.774,0.34-3.798,0.354c-1.944,0-3.054-0.659-4.878-0.351  c-0.862,0.003-1.608-0.718-2.259-0.59c-1.498,0.572-2.802,0.281-3.829-0.875c-0.102-0.183-0.329-0.183-0.716,0  c-0.461,0.042-0.88,0.282-1.203,0.606c-0.931,1.97-2.055,1.8-3.869,0.823c-1.263,0.047-2.892,0.035-4.614-0.864  c-0.989,0.646-2.037,0.591-3.775-0.213c-1.238-0.954-2.73,0.338-4.31,0.592c-1.289,0.268-2.686,0.518-3.884,0.521  c-1.172-0.845-3.301-1.154-4.564-0.253c-0.32-0.127-0.483-0.366-0.557-0.732c-0.126-0.366-0.457-0.635-0.903-0.791  c-1.625,0.114-2.768,0.48-3.818,1.13c-1.86,0.646-3-1.418-4.864-0.931c-1.533,0.732-2.916,0.662-4.049,2.365  c-0.396,0.296-0.597,0.394-0.703,0.282c-0.911-0.62-1.408-1.025-2.636-1.067c-1.25,0.25-2.489,0.008-3.533-0.038  c-1.122-0.415-1.668,0.026-1.971,0.202c-0.292-0.162-0.622-0.167-0.833-0.167c-0.522-0.016-1.966,0-2.528,0.788  c-0.758-0.522-1.629-0.423-3.067,0.21l-1.808-1.005l-4.295,0.357c-0.382,0.226-1.627,0.071-2.578-0.344  c-0.69-0.01-1.587-0.01-2.976,0l-1.694-0.893l-4.001,0.883c-0.717,0.002-1.989,0.003-3.085,0.198  c-1.338,0.931-1.724-0.688-3.692-0.211c-0.32,0.013-0.956,0.015-1.615,0.016c-0.719,0.069-2.161,0.295-2.753,0.279  c-1.071-0.21-1.292-0.771-2.874-0.288c-0.992,0.009-2.251,0.161-3.8,0.176c-1.31,0-2.45-0.659-4.757-0.168  c-0.267,0.001-1.462-0.898-2.005-0.787c-1.758,0.564-2.728,0.31-3.484-0.705c-0.261-0.182-0.733-0.182-1.181,0  c-0.465,0.044-0.882,0.282-1.12,0.607c-0.721,1.97-1.708,1.8-3.894,0.83c-1.286,0.063-2.954,0.056-4.098-0.873  c-1.321,0.649-2.616,0.593-3.856-0.211c-1.396-0.927-3.232,0.338-4.598,0.592c-1.382,0.269-2.893,0.545-3.842,0.548  c-1.004-0.873-3.218-1.183-4.646-0.279c-0.058-0.127-0.165-0.367-0.437-0.733c-0.336-0.367-0.741-0.635-1.205-0.79  c-1.025,0.112-2.322,0.479-3.801,1.129c-1.615,0.673-2.493-1.393-4.799-0.932c-1.472,0.732-2.983,0.662-3.949,2.364  c-0.067,0.297-0.169,0.396-0.601,0.281c-0.866-0.618-1.574-1.011-2.909-1.039c-0.917,0.222-1.964,0.006-3.531-0.057  c-0.788-0.423-1.42,0.04-1.933,0.194c-0.248-0.134-0.31-0.139-0.375-0.139c-0.929-0.009-2.319,0-2.452,0.816  c-1.194-0.509-1.986-0.423-3.553,0.224l-1.628-1.049l-4.034,0.33c-0.663,0.226-1.915,0.072-2.493-0.316  c-1.044-0.008-1.803-0.008-3.336,0l-1.697-0.92l-3.999,0.912c-0.526,0.002-1.973,0.003-2.707,0.17  c-1.404,0.931-2.108-0.688-3.836-0.188c-0.251,0.019-1.192,0.021-1.522,0.021c-1.057,0.045-2.373,0.266-2.988,0.253  c-0.868-0.208-1.223-0.773-2.979-0.269c-0.856,0.016-1.897,0.14-3.801,0.154c-1.267,0-2.31-0.659-4.387-0.14  c-0.548,0.001-1.471-0.928-2.366-0.814c-1.501,0.661-2.892,0.394-3.575-0.706c-0.448-0.183-0.913-0.183-1.38,0  c-0.393,0.043-0.488,0.282-0.511,0.606c-1.299,1.971-2.302,1.802-3.904,0.833c-1.415,0.087-3.55,0.082-4.491-0.875  c-0.901,0.648-2.817,0.592-3.595-0.212c-1.284-0.897-3.567,0.339-4.997,0.592c-1.446,0.269-2.53,0.573-3.878,0.577  c-1.03-0.899-2.631-1.211-4.04-0.309c-0.313-0.126-0.731-0.38-1.058-0.732c-0.336-0.354-0.746-0.634-1.209-0.79  c-0.989,0.112-1.944,0.479-3.814,1.129c-1.593,0.701-2.363-1.364-4.177-0.931c-1.458,0.733-3.59,0.661-3.915,2.364  c-0.238,0.296-0.758,0.395-1.241,0.281c-0.275-0.619-1.588-0.994-2.605-1.013c-1.217,0.195-2.174,0.003-3.832-0.082  c-0.191-0.423-1.427,0.061-1.537,0.192c-0.045-0.107-0.106-0.11-0.409-0.11c-1.296-0.011-2.085,0-2.453,0.788  c-1.051-0.509-2.361-0.423-3.527,0.225l-1.472-1.019l-4.201,0.356c-1.198,0.226-2.111,0.085-2.575-0.344  c-0.998-0.01-2.268-0.01-3.457,0l-1.451-0.906l-3.941,0.896c-1.167,0.002-2.396,0.003-3.06,0.198  c-1.179,0.931-2.406-0.688-3.404-0.211c-0.952,0.013-1.332,0.015-1.898,0.016c-1.41,0.083-1.916,0.308-3.292,0.295  c-0.354-0.226-1.255-0.787-2.476-0.304c-1.396,0.009-2.379,0.176-3.896,0.176c-1.494,0-2.764-0.659-4.339-0.168  c-1.022,0.001-1.632-0.914-2.861-0.773c-0.832,0.578-2.171,0.296-3.402-0.774c-0.438-0.184-0.918-0.184-1.072,0  c-0.042,0.042-0.213,0.281-0.531,0.605c-1.055,1.971-2.58,1.802-3.86,0.832c-1.269,0.114-3.432,0.111-4.804-0.874  c-0.836,0.649-2.512,0.593-3.601-0.212c-1.277-0.869-2.866,0.339-4.462,0.593c-1.981,0.269-2.518,0.6-3.901,0.604  c-1.542-0.929-3.115-1.239-4.408-0.336c-0.451-0.127-0.891-0.382-1.215-0.733c-0.325-0.354-0.529-0.635-0.559-0.79  c-1.584,0.112-2.578,0.479-3.896,1.128c-1.655,0.73-2.932-1.335-4.455-0.931c-1.515,0.733-3.353,0.662-4.048,2.365  c-0.381,0.295-0.879,0.395-0.968,0.281c-0.665-0.619-2.004-0.973-2.367-0.984c-1.539,0.167-2.831,0.003-3.787-0.111  c-1.182-0.367-1.72,0.108-2.18,0.814c-0.611,0.677-1.466,1.084-1.724,1.104c-1.611-1.598-3.375-1.8-4.597-0.681  c-1.323,0.508-3.209,0.267-4.845-0.69c-0.671-0.425-2.248,0.534-3.568-0.433c-1.043-0.212-2.769,0.22-4.327,0.672  c-3.62,0.832-6.444,1.164-9.639,1.674c-1.278-0.51-2.083-1.293-3.674-2.126c-0.477-0.153-0.591-0.056-0.6,0.283  c-1.018,1.66-2.493,1.801-3.93,2.361c-1.387,0.271-1.87-0.109-2.983-1c-0.866-0.149-1.365-0.77-2.587-0.741  c-1.098,0.681-2.232,0.353-3.722-0.847c-0.207-0.155-0.841,0.143-1.488,0.776c-0.818,0.783-1.049,1.025-2.41,1.35l-0.558,0.254  h-1.837c-0.429-0.1-1.492-0.48-1.728-0.82c-0.671,0-1.715,0.005-2.052,0.834c0,0.028-0.016,0.057-0.029,0.085  c-0.175,0-1.309-0.117-1.809-0.339c0.002,0.155,0.002,0.946-0.021,1.486c-0.897-0.542-2.167-0.88-2.74-0.612  c-1.163,0.603-2.832,0.612-3.802,0.612c-0.926,0-1.252-0.104-1.532-0.711c-0.986-1.058-1.927-1.355-2.831-1.355  c-0.861,0.369-2.929,0.046-3.504-0.191c-0.885-0.169-1.201,0.127-1.449,0.191c-0.835,0.75-1.939,1.581-2.435,1.92  c-0.745,0.135-1.222,0.143-1.266,0.146c-0.857-2.065-1.551-2.107-2.167-1.401c-0.011,0.354-0.239,0.678-0.579,0.959  c-0.296-0.154-0.563-0.338-0.83-0.549c-0.844,0.62-2.496,0.521-3.617-0.254c-0.713-0.816-1.18-0.804-2.394,0.803  c-0.268-0.211-0.376-0.38-0.393-0.577c-0.984-0.959-1.672-0.959-2.051,0.803c-0.65,0.349-1.856,0.97-2.578,0.462  c-0.994-0.244-2.436-0.786-3.19-1.815c-2.157,1.541-3.902-0.491-5.601-1.264c-0.023-0.648-0.806-1.067-1.723-1.071  c-0.491-0.081-1.915,0.001-2.185,0.846c-0.67,0.997-1.475,0.998-2.211,0.873c-1.317-0.916-1.698-1.594-2.783-1.729l-8.471,1.531  l-2.94-2.295l-3.996,0.773c-1.291,0.001-1.943,0.004-3.095,0.309c-1.454,0.931-2.102-0.688-3.677-0.312  c-0.237,0.003-0.927,0.004-1.887,0.004c-0.444,0.181-1.87,0.422-2.345,0.407c-1.313-0.227-1.998-0.787-2.987-0.41  c-0.874,0.008-2.831,0.269-3.8,0.282c-1.278,0-3.024-0.659-4.846-0.28c-0.106,0.001-1.671-0.787-2.086-0.66  c-1.708,0.619-2.779,0.296-3.905-0.874c-0.006-0.184-0.421-0.184-0.886,0c-0.449,0.044-0.886,0.283-0.947,0.606  c-0.882,1.969-2.075,1.801-3.907,0.831c-1.48,0.101-3.111,0.098-4.054-0.874c-1.792,0.649-2.817,0.592-3.771-0.211  c-2.049-0.884-3.508,0.338-4.885,0.593c-1.379,0.268-2.886,0.585-3.827,0.59c-1.168-0.915-3.001-1.226-4.858-0.322  c-0.213-0.128-0.217-0.366-0.232-0.731c-0.299-0.354-0.737-0.637-1.202-0.791c-0.982,0.112-2.686,0.479-3.785,1.127  c-1.631,0.717-2.812-1.349-4.645-0.93c-1.777,0.732-3.138,0.662-3.907,2.364c-0.004,0.296-0.298,0.395-0.806,0.281  c-1.241-0.619-1.561-0.985-2.931-0.998c-0.884,0.181-2.244,0.003-3.531-0.098c-0.548-0.423-1.408,0.07-1.958,0.195  c-0.296-0.095-0.621-0.098-0.663-0.098c-0.602-0.016-1.835,0-1.84,0.774c-1.536-0.509-2.279-0.424-3.844,0.224l-1.858-1.016  l-4.152,0.297c-0.49,0.227-1.746,0.071-1.898-0.276c-1.507-0.006-2.221-0.006-3.773,0l-1.701-0.96l-4.026,0.954  c-0.475,0.002-1.942,0.003-2.374,0.127c-1.851,0.932-2.408-0.686-3.752-0.166c-0.612,0.039-1.586,0.041-2.006,0.042  c-0.94,0.022-1.9,0.223-2.872,0.209c-1.037-0.187-1.222-0.771-2.935-0.236c-0.921,0.027-2.009,0.11-3.851,0.125  c-1.28,0-2.306-0.659-3.965-0.101c-0.986,0.003-2.015-0.969-2.79-0.855c-1.111,0.605-2.658,0.324-3.547-0.705  c-0.293-0.184-0.773-0.184-1.047,0c-0.418,0.042-0.422,0.282-0.584,0.606c-1.356,1.97-2.406,1.802-3.977,0.831  c-1.609,0.129-3.237,0.126-4.51-0.874c-1.29,0.635-2.635,0.537-3.586-0.268c-1.678-0.799-3.243,0.324-4.909,0.594  c-1.525,0.252-2.466,0.663-3.907,0.673c-1.08-0.999-2.904-1.308-4.421-0.392c-0.4-0.155-0.442-0.396-0.711-0.762  c-0.34-0.353-0.721-0.62-0.792-0.774c-1.419,0.098-2.783,0.479-3.837,1.113c-1.954,0.814-2.917-1.251-4.702-0.932  c-1.669,0.762-3.11,0.664-4.053,2.366c-0.027,0.295-0.495,0.408-1.002,0.284c-0.659-0.624-1.562-0.9-2.408-0.903  c-1.392,0.098-2.479,0-3.603-0.196c-0.885-0.365-1.87,0.193-2.392,0.815c-0.394,0.704-0.97,1.085-1.405,1.113  c-1.466-1.608-3.195-1.73-4.847-0.692c-1.375,0.509-2.937,0.283-4.458-0.675c-1.113-0.362-2.39,0.521-3.519-0.364  c-1.534-0.296-3.181,0.166-4.732,0.518c-3.319,0.848-6.612,1.32-9.329,1.674c-1.396-0.36-2.461-1.265-3.672-2.109  c-0.48-0.076-0.681-0.049-0.915,0.282c-0.721,1.659-2.667,1.801-4.082,2.364c-0.928,0.282-1.9-0.114-2.519-0.887  c-0.959-0.251-1.874-0.887-2.83-0.858c-1.052,0.678-2.42,0.354-3.49-0.846c-0.534-0.12-1.309,0.141-1.465,0.789  c-0.843,0.911-1.561,0.998-2.433,1.337l-0.971,0.366h-1.529c-0.766-0.099-1.355-0.479-1.953-0.792c-0.768,0-1.33,0.004-1.655,0.806  c-0.014,0.028-0.029,0.057-0.042,0.085c-0.655,0-1.309-0.117-2.211-0.338c0.126,0.154,0.005,0.945,0,1.514  c-0.917-0.57-1.945-0.908-2.855-0.641c-1.052,0.625-2.335,0.641-3.801,0.641c-0.421-0.001-1.156-0.133-1.519-0.739  c-0.56-1.058-1.593-1.327-2.51-1.327c-1.189,0.34-2.753,0.028-3.809-0.22c-0.407-0.17-1.134,0.127-1.477,0.22  c-0.574,0.721-1.549,1.553-2.436,1.89c-0.237,0.158-0.985,0.172-1.236,0.174c-0.807-2.063-1.183-2.105-1.899-1.271  c-0.283,0.353-0.579,0.677-0.86,0.96c-0.002-0.171-0.111-0.34-0.379-0.552c-1.352,0.552-2.618,0.396-3.56-0.408  c-1.226-0.788-1.677-0.782-2.393,0.804c-0.269-0.212-0.522-0.381-0.577-0.578c-0.903-0.959-1.521-0.959-2.352,0.803  c-0.495,0.35-1.563,0.97-2.442,0.462c-1.085-0.216-2.073-0.786-3.199-1.814c-2.309,1.55-3.754-0.465-5.462-1.267  c-0.267-0.646-1.078-1.038-1.49-1.041c-0.887-0.11-1.942,0-2.592,0.817c-0.772,1.024-1.081,1.025-2.123,0.874  c-1.013-0.916-1.846-1.634-2.704-1.708l-8.287,1.511l-3.423-2.294l-3.918,0.8c-1.078,0.001-1.954,0.002-2.991,0.28  c-1.18,0.931-2.023-0.686-3.391-0.284c-0.586,0.004-1.421,0.005-1.913,0.005c-0.901,0.152-1.843,0.394-2.829,0.379  c-0.815-0.227-1.68-0.785-2.565-0.383c-1.277,0.007-2.741,0.241-3.896,0.257c-1.59,0-3.045-0.659-4.714-0.254  c-0.549,0.001-1.618-0.814-2.365-0.688c-1.379,0.606-2.682,0.282-3.798-0.875c-0.185-0.184-0.677-0.184-0.838,0  c-0.26,0.042-0.683,0.282-1.007,0.606c-0.943,1.97-2.093,1.802-3.872,0.831c-1.25,0.129-2.957,0.126-4.305-0.874  c-1.352,0.648-2.534,0.565-3.688-0.268c-1.73-0.799-3.165,0.324-4.7,0.594c-1.701,0.252-2.729,0.663-3.888,0.673  c-1.281-0.999-3.136-1.308-4.625-0.392c-0.428-0.155-0.483-0.396-0.733-0.762c-0.336-0.367-0.492-0.62-0.716-0.774  c-1.492,0.084-2.903,0.464-3.857,1.113c-1.782,0.814-3.002-1.251-4.882-0.932c-1.536,0.762-2.775,0.664-3.92,2.266  c-0.063,0.298-0.415,0.409-0.765,0.283c-0.876-0.621-1.719-0.802-2.566-0.802c-1.333,0.022-2.589,0-3.531-0.295  c-1.021-0.324-1.886,0.291-2.407,0.813c-0.532,0.691-0.97,1.101-1.407,1.115c-1.45-1.589-3.185-1.634-4.911-0.678  c-1.309,0.493-2.792,0.268-4.392-0.69c-1.112-0.266-2.278,0.522-3.551-0.266c-1.502-0.38-3.177,0.167-4.619,0.519  c-3.267,0.848-6.566,1.32-9.283,1.674c-1.672-0.36-2.464-1.265-3.687-2.109c-0.449-0.076-0.681-0.049-0.873,0.282  c-1.021,1.674-2.688,1.827-4.095,2.266c-0.938,0.282-1.886-0.113-2.811-0.79c-0.647-0.348-1.566-0.982-2.535-0.954  c-1.327,0.69-2.438,0.366-3.509-0.83c-0.556-0.054-1.32,0.124-1.766,0.76c-0.524,1.021-1.243,1.046-2.12,1.35  c-1.759,0.859-3.416,0.592-4.535-0.327c-0.934,0-1.499,0.004-1.816,0.776c-0.007,0.029-0.007,0.044-0.017,0.086  c-0.049,0.931-0.679,1.204-1.302,1.204c-1.306,0.001-2.006-1.458-3.752-0.612c-0.897,0.597-2.258,0.612-3.675,0.612  c-0.438,0-1.079-0.119-1.534-0.725c-0.788-1.044-1.531-1.342-2.713-1.342c-0.975,0.354-2.544,0.028-3.604-0.22  c-0.418-0.156-1.048,0.142-1.479,0.22c-0.762,0.735-1.476,1.567-2.42,1.904c-1.283,0.163-3.035,0.162-4.375-0.846  c-1.327,0.621-2.542,0.522-3.805-0.282c-1.377-0.776-1.629-0.759-2.692,1.291l-6.521,1.789l-4.44,0.002l-2.083-1.792  c-2.354,0.202-4.478,0.779-6.667,1.555c-1.04,0.266-1.532,0.279-1.638-0.423c-0.066-0.817-0.123-1.135-0.208-1.899  c-2.614-0.775-5.085,1.815-7.295-0.493c-1.943,0.339-3.873,0.946-5.73,1.261c-2.095,0.766-3.763-0.937-5.695-0.119  c-1.008,0.119-2.443,0.124-3.871,0.136c-0.656,0-1.26-0.854-2.481-0.347c-1.388,0.329-2.384,0.331-3.856,0.331  c-1.558,0.016-2.874-1.432-4.328-0.013c-1.64-0.487-3.119-2.009-4.821-0.77c-6.67-1.285-10.066-2.111-13.245-0.804  c-0.663,1.388-0.878,1.886-1.127,3.404c-0.076,0.238-1.042-1.218-1.018,0c-2.073,0.021-2.947,0-4.522,0  c-0.188-0.104-0.322-0.235-0.377-0.42c-0.408-0.789-1.437-0.986-1.879-0.423c-1.849,0.862-3.125-0.761-4.121-1.096  c-0.751-0.648-1.418-0.789-1.859-0.324c-0.942,0.443-1.415,0.965-1.448,2.262c-8.571,1.696-14.74-2.936-18.722-0.002  c-0.664-0.383-0.91-0.759-1.281-1.107c-1.211-0.125-1.927-0.014-3.04,0.311c-0.348-0.212-0.471-0.465-0.741-0.789  c-1.572-0.23-1.627-0.23-2.554,1.585c-4.515,3.593-12.278-3.882-13.259,0l-1.563-1.416c-1.447,0.212-2.419,0.605-3.863,1.212  c-0.212,0.118-0.328,0.186-0.412,0.204c-0.104,0-0.349,0-0.602,0c-1.237-0.206-2.36-1.81-3.365-1.092  c-1.301,0.45-1.949,0.17-3.011-0.711c-0.843-0.062-2.397,1.091-3.521-0.012c-1.445-1.389-3.927,0.807-5.16-1.078  c-2.177,0.409-4.446,0.423-5.712,2.891c-0.488,4.621-11.008-2.133-15.444-0.001c-0.164-0.149-0.242-0.33-0.313-0.525  c-1.485-1.282-1.566-1.282-3.117,0.525c-3.04,2.065-1.84,0.015-6.658-0.002c-1.455-1.28-2.839-0.435-3.967-0.019  c-0.04,0.006-0.112,0.013-0.186,0.019c-1.247,0-2.207,0-3.324,0c-0.324-0.277-0.715-0.695-1.195-1.227  c-0.675-0.583-1.608-0.585-2.625-0.583c-1.303,0.145-2.382,0.427-3.88,0.793c-0.121-0.296-0.259-0.635-0.32-0.793  c-0.514-2.065-1.281-2.073-2.015-1.192c-1.506,1.214-3.456,2.196-5.365,1.675c-0.64-0.459-1.831-0.486-2.355-1.335  c-1.114-0.959-1.601-0.959-2.213,0.803c-0.607,0.35-1.65,0.969-2.55,0.448c-1.123-0.399-2.408-0.771-3.215-1.802  c-2.159,1.398-3.776-0.636-5.417-1.279c-0.386-0.647-0.975-1.179-1.769-1.224c-0.635-0.009-1.942,0-2.22,1.013  c-0.771,0.841-1.522,0.844-2.314,0.817c-1.266-0.874-1.737-1.577-2.79-1.833l-8.318,1.693l-3.125-2.295l-4.011,0.604  c-0.974,0-1.932,0.034-2.881,0.478c-1.577,0.931-2.227-0.701-3.686-0.479c-0.496,0.001-1.135,0.001-1.915,0.008  c-0.711,0.344-1.917,0.569-2.663,0.555c-1.084-0.211-1.564-0.785-2.8-0.563c-1.078,0.07-2.501,0.437-3.826,0.437  c-1.369,0-2.812-0.659-4.528-0.436c-0.575,0.012-1.813-0.619-2.458-0.505c-1.357,0.487-2.589,0.169-3.639-0.944  c-0.24-0.184-0.501-0.184-0.882,0c-0.413,0.041-0.688,0.28-0.837,0.604c-1.01,1.971-2.343,1.801-3.893,0.817  c-1.546,0.04-3.233,0.027-4.418-0.858c-1.337,0.647-2.573,0.591-3.761-0.211c-1.525-0.97-3.195,0.337-4.642,0.592  c-1.49,0.267-2.663,0.502-3.837,0.505c-1.351-0.83-3.079-1.14-4.657-0.238c-0.237-0.127-0.52-0.366-0.687-0.733  c-0.175-0.352-0.497-0.634-0.904-0.789c-1.169,0.113-2.536,0.479-3.823,1.128c-1.651,0.632-2.864-1.432-4.519-0.931  c-1.751,0.733-3.265,0.664-3.987,2.365c-0.289,0.296-0.54,0.395-0.869,0.282c-0.928-0.662-1.737-1.071-2.791-1.084  c-1.122,0.18-2.499,0.003-3.673-0.111c-0.878-0.367-1.936,0.11-2.25,0.814c-0.371,0.689-0.859,1.084-1.621,1.104  c-1.157-1.584-2.99-1.796-4.487-0.666c-1.556,0.451-3.02,0.226-4.377-0.663c-1.157-0.465-2.267,0.521-3.707-0.471  c-1.372-0.189-3.188,0.246-4.677,0.696c-3.221,0.832-6.438,1.136-9.151,1.673c-1.506-0.537-2.65-1.278-3.792-2.123  c-0.248-0.155-0.612-0.044-0.956,0.28c-0.743,1.659-2.398,1.801-4.041,2.364c-0.915,0.269-1.938-0.14-2.607-1.042  c-0.569-0.151-1.571-0.785-2.484-0.758c-1.254,0.689-2.718,0.365-3.704-0.845c-0.573-0.155-1.22,0.141-1.637,0.787  c-0.496,0.799-1.395,0.999-2.261,1.336c-1.498,0.79-3.201,0.48-4.564-0.535c-0.614-0.002-1.331,0.007-1.504,0.889  c-0.007,0.028-0.007,0.042-0.016,0.085c-0.197,0.929-0.851,1.091-1.479,1.092c-1.301,0.005-2.079-1.347-3.525-0.501  c-1.259,0.496-2.576,0.5-3.852,0.501c-0.672-0.001-1.245-0.02-1.813-0.613c-0.653-1.043-1.566-1.451-2.522-1.451  c-1.265,0.479-2.551,0.141-3.595-0.109c-0.644-0.155-1.252,0.094-1.699,0.106c-0.539,0.849-1.285,1.68-2.194,2.018  c-0.573,0.045-0.968,0.048-1.578,0.049c-0.508-2.066-1.013-2.075-1.9-1.29c-0.15,0.339-0.308,0.678-0.505,0.96  c-0.255-0.17-0.459-0.353-0.602-0.563c-1.17,0.579-2.465,0.479-3.676-0.282c-1.135-0.882-1.379-0.845-2.204,0.804  c-0.146-0.212-0.28-0.381-0.522-0.579c-1.05-0.958-1.511-0.958-2.417,0.805c-0.39,0.349-1.42,0.969-2.321,0.461  c-1.22-0.314-2.37-0.785-3.42-1.814c-2.146,1.49-3.644-0.561-5.184-1.265c-0.606-0.648-1.049-1.13-1.722-1.142  c-0.922-0.026-1.933,0.001-2.281,0.915c-0.881,0.929-1.495,0.93-2.497,0.873c-1.006-0.915-1.559-1.635-2.609-1.792l-8.285,1.597  l-3.18-2.294l-3.975,0.701c-0.969,0.001-1.955,0.008-2.896,0.379c-1.552,0.932-2.356-0.687-3.641-0.381  c-0.67,0.002-1.224,0.003-1.918,0.004c-0.946,0.252-1.918,0.491-2.893,0.477c-0.892-0.225-1.369-0.786-2.635-0.48  c-1.238,0.016-2.467,0.34-3.804,0.354c-1.499,0-2.804-0.659-4.528-0.351c-0.756,0.003-1.78-0.718-2.631-0.59  c-1.199,0.572-2.542,0.281-3.646-0.875c-0.307-0.183-0.564-0.183-0.877,0c-0.374,0.042-0.593,0.282-0.759,0.606  c-1.088,1.97-2.492,1.8-3.889,0.823c-1.59,0.047-3.313,0.035-4.593-0.864c-1.148,0.646-2.47,0.591-3.724-0.213  c-1.402-0.954-3.091,0.338-4.599,0.592c-1.585,0.268-2.587,0.518-3.847,0.521c-1.402-0.845-3.06-1.154-4.562-0.253  c-0.252-0.127-0.659-0.366-0.841-0.732c-0.171-0.366-0.412-0.635-0.837-0.791c-1.244,0.114-2.462,0.48-3.825,1.13  c-1.629,0.646-2.871-1.418-4.449-0.931c-1.738,0.732-3.348,0.662-4.006,2.365c-0.378,0.296-0.663,0.394-0.917,0.282  c-0.854-0.62-1.753-1.025-2.667-1.067c-1.191,0.25-2.582,0.008-3.704-0.038c-0.698-0.415-1.497,0.026-1.956,0.202  c-0.167-0.162-0.371-0.167-0.63-0.167c-0.821-0.016-1.784,0-2.344,0.788c-1.049-0.522-2.176-0.423-3.201,0.21l-1.887-1.005  l-4.211,0.357c-0.811,0.226-1.671,0.071-2.453-0.344c-1.005-0.01-2.117-0.01-3.135,0l-1.816-0.893l-3.965,0.883  c-0.981,0.002-1.961,0.003-2.906,0.198c-1.399,0.931-2.192-0.688-3.603-0.211c-0.545,0.013-1.255,0.015-1.916,0.016  c-0.903,0.069-1.857,0.295-2.845,0.279c-0.806-0.21-1.45-0.771-2.585-0.288c-1.259,0.009-2.595,0.161-3.848,0.176  c-1.581,0-2.869-0.659-4.612-0.168c-0.664,0.001-1.73-0.898-2.487-0.787c-1.265,0.564-2.514,0.31-3.543-0.705  c-0.242-0.182-0.66-0.182-0.916,0c-0.259,0.044-0.597,0.282-0.834,0.607c-1.06,1.97-2.308,1.8-3.885,0.83  c-1.405,0.063-3.181,0.056-4.415-0.873c-1.286,0.649-2.588,0.593-3.729-0.211c-1.576-0.927-3.085,0.338-4.716,0.592  c-1.568,0.269-2.593,0.545-3.863,0.548c-1.268-0.873-3.018-1.183-4.517-0.279c-0.328-0.127-0.567-0.367-0.748-0.733  c-0.307-0.354-0.568-0.635-0.831-0.79c-1.335,0.112-2.651,0.479-3.855,1.129c-1.762,0.673-2.89-1.393-4.595-0.932  c-1.624,0.732-3.202,0.662-3.998,2.364c-0.219,0.297-0.57,0.396-0.935,0.281c-0.835-0.618-1.7-1.011-2.548-1.039  c-1.304,0.222-2.546,0.006-3.646-0.057c-0.791-0.423-1.649,0.04-1.955,0.194c-0.188-0.134-0.488-0.139-0.685-0.139  c-0.885-0.009-1.85,0-2.237,0.816c-1.062-0.509-2.246-0.423-3.324,0.224l-1.69-1.049l-4.34,0.33  c-0.77,0.226-1.547,0.072-2.313-0.316c-1.005-0.008-2.134-0.008-3.153,0l-1.811-0.92l-3.969,0.912  c-0.975,0.002-1.946,0.003-2.905,0.17c-1.496,0.931-2.294-0.688-3.608-0.188c-0.655,0.019-1.241,0.021-1.922,0.021  c-0.939,0.045-1.897,0.266-2.878,0.253c-0.874-0.208-1.401-0.773-2.626-0.269c-1.243,0.016-2.498,0.14-3.792,0.154  c-1.534,0-2.829-0.659-4.572-0.14c-0.732,0.001-1.755-0.928-2.595-0.814c-1.215,0.661-2.541,0.394-3.667-0.706  c-0.318-0.183-0.592-0.183-0.89,0c-0.353,0.043-0.611,0.282-0.801,0.606c-1.048,1.971-2.43,1.802-3.877,0.833  c-1.547,0.087-3.28,0.082-4.549-0.875c-1.184,0.648-2.496,0.592-3.726-0.212c-1.452-0.897-3.096,0.339-4.612,0.592  c-1.589,0.269-2.597,0.573-3.846,0.577c-1.384-0.899-3.06-1.211-4.06-0.309v0.004V406l1999.5-0.024V406l2000.5-0.024v-10.869  c-0.856,0.28-1.668,0.098-2.191-0.174c-0.126-0.149-0.214-0.341-0.329-0.504c-1.391-0.062-2.929,1.091-3.762-0.012  c-1.871-1.389-3.916,0.807-5.519-1.078c-1.775,0.349-3.581,0.41-5.207,1.604c-0.127,0.418-0.293,1.115-0.408,1.312  c-0.593,1.588-0.754,1.757-3.387,0.417c-1.078-0.417-2.792,1.143-4.283-0.416c-0.783-0.722-2.585,0-3.797,0.05  c-1.083,0.662-3.467,0.057-4.314-0.603c-0.219-0.211-0.411-0.547-0.47-0.694c-0.295-0.41-0.727-0.432-1.376,0.005  c-0.411,0.317-1.107,0.948-1.51,1.241c-0.26,0.051-0.844,1.05-1.118,0.502c-1.656-0.507-3.249-0.688-4.536-0.501  c-1.983-1.567-3.107-0.523-4.836-0.048c-0.494,0.028-0.956,0.044-1.219,0.047c-0.868,0.003-2.039,0-3.343-1.073  c-0.023-0.025-0.148-0.156-0.172-0.182c-0.548-0.583-1.321-0.585-2.071-0.583c-1.666,0.091-2.906,0.453-3.703,0.77  c-0.04,0.008-0.081,0.015-0.122,0.023c-0.006-0.007-0.013-0.016-0.019-0.022c-0.204-0.269-0.429-0.655-0.554-0.771  c-0.889-2.065-1.597-2.073-2.142-1.192c-0.992,1.214-3.533,2.196-4.843,1.675c-1.392-0.459-2.487-0.486-2.858-1.335  c-0.802-0.959-1.117-0.959-2.456,0.803c-0.632,0.35-1.421,0.969-2.154,0.448c-1.168-0.399-2.778-0.771-3.464-1.802  c-2.303,1.398-3.68-0.636-4.976-1.279c-0.771-0.647-1.586-1.179-2.274-1.224c-0.588-0.009-1.255,0-1.817,1.013  c-1.269,0.841-1.983,0.844-2.608,0.817c-0.696-0.874-1.47-1.577-2.988-1.833l-8.242,1.693l-3.185-2.295l-4.023,0.604  c-0.798,0-1.568,0.034-2.399,0.478c-2.021,0.931-2.441-0.701-3.407-0.479c-0.939,0.001-1.898,0.001-2.614,0.008  c-0.637,0.344-1.228,0.569-2.602,0.555c-1.195-0.211-1.506-0.785-2.382-0.563c-1.444,0.07-2.95,0.437-3.845,0.437  c-1.835,0-3.119-0.659-4.45-0.436c-1.05,0.012-2.358-0.619-2.854-0.505c-0.86,0.487-2.808,0.169-3.625-0.944  c-0.186-0.184-0.581-0.184-0.741,0c-0.147,0.041-0.304,0.28-0.6,0.604c-1.587,1.971-2.649,1.801-3.874,0.817  c-2.197,0.04-3.383,0.027-4.809-0.858c-1.494,0.647-2.444,0.591-3.603-0.211c-1.835-0.97-2.909,0.337-5.036,0.592  c-1.365,0.267-1.932,0.502-3.847,0.505c-1.042-0.83-2.604-1.14-4.624-0.238c-0.137-0.127-0.268-0.366-0.447-0.733  c-0.307-0.352-0.471-0.634-0.625-0.789c-1.587,0.113-2.965,0.479-3.844,1.128c-2.167,0.632-3.137-1.432-4.45-0.931  c-2.335,0.733-3.36,0.664-4.054,2.365c-0.405,0.296-0.896,0.395-1.396,0.282c-0.847-0.662-1.594-1.071-2.064-1.084  c-1.833,0.18-2.925,0.003-3.761-0.111c-1.176-0.367-2.617,0.11-2.828,0.814c-0.193,0.689-0.77,1.084-1.073,1.104  c-1.645-1.584-3.368-1.796-4.625-0.666c-2.044,0.451-3.083,0.226-4.625-0.663c-1.378-0.465-2.266,0.521-3.52-0.471  c-1.774-0.189-2.902,0.246-5.094,0.696c-2.873,0.832-5.714,1.136-8.86,1.673c-1.275-0.537-2.944-1.278-3.727-2.123  c-0.402-0.155-0.642-0.044-0.755,0.28c-0.816,1.659-2.896,1.801-3.959,2.364c-1.166,0.269-2.614-0.14-3.013-1.042  c-0.617-0.151-1.113-0.785-2.565-0.758c-1.278,0.689-2.235,0.365-3.535-0.845c-0.875-0.155-1.53,0.141-1.714,0.787  c-0.552,0.799-0.941,0.999-2.172,1.336c-1.68,0.79-2.858,0.48-4.883-0.535c-0.584-0.002-1.021,0.007-1.322,0.889  c-0.012,0.028-0.024,0.042-0.024,0.085c-0.121,0.929-0.356,1.091-1.188,1.092c-1.824,0.005-2.191-1.347-3.417-0.501  c-1.832,0.496-2.8,0.5-3.808,0.501c-0.938-0.001-1.855-0.02-2.465-0.613c-0.291-1.043-1.077-1.451-2.021-1.451  c-1.785,0.479-2.822,0.141-3.535-0.109c-0.884-0.155-1.782,0.094-2.251,0.106c-0.255,0.849-0.992,1.68-1.631,2.018  c-0.743,0.045-1.466,0.048-2.153,0.049c-0.314-2.066-0.664-2.075-1.3-1.29c-0.08,0.339-0.254,0.678-0.558,0.96  c-0.294-0.17-0.562-0.353-0.824-0.563c-1.418,0.579-2.408,0.479-3.511-0.282c-1.622-0.882-1.801-0.845-2.374,0.804  c-0.245-0.212-0.348-0.381-0.448-0.579c-0.948-0.958-1.658-0.958-2.797,0.805c-0.214,0.349-1.078,0.969-1.799,0.461  c-1.728-0.314-2.474-0.785-3.347-1.814c-2.723,1.49-3.818-0.561-5.65-1.265c-0.703-0.648-1.072-1.13-1.505-1.142  c-0.675-0.026-1.919,0.001-2.579,0.915c-0.84,0.929-1.121,0.93-1.99,0.873c-1.167-0.915-2.085-1.635-2.906-1.792l-8.223,1.597  l-3.383-2.294l-3.918,0.701c-0.927,0.001-1.612,0.008-3.025,0.379c-1.191,0.932-1.942-0.687-3.393-0.381  c-0.957,0.002-1.373,0.003-1.89,0.004c-0.693,0.252-1.883,0.491-3.181,0.477c-0.502-0.225-1.18-0.786-2.169-0.48  c-1.701,0.016-2.774,0.34-3.798,0.354c-1.943,0-3.055-0.659-4.878-0.351c-0.861,0.003-1.608-0.718-2.26-0.59  c-1.497,0.572-2.802,0.281-3.829-0.875c-0.102-0.183-0.328-0.183-0.716,0c-0.461,0.042-0.88,0.282-1.203,0.606  c-0.931,1.97-2.056,1.8-3.869,0.823c-1.263,0.047-2.892,0.035-4.613-0.864c-0.99,0.646-2.037,0.591-3.775-0.213  c-1.239-0.954-2.73,0.338-4.31,0.592c-1.29,0.268-2.687,0.518-3.885,0.521c-1.172-0.845-3.3-1.154-4.564-0.253  c-0.32-0.127-0.483-0.366-0.557-0.732c-0.126-0.366-0.456-0.635-0.902-0.791c-1.625,0.114-2.769,0.48-3.818,1.13  c-1.859,0.646-3.001-1.418-4.864-0.931c-1.533,0.732-2.916,0.662-4.049,2.365c-0.396,0.296-0.597,0.394-0.702,0.282  c-0.912-0.62-1.408-1.025-2.637-1.067c-1.25,0.25-2.489,0.008-3.533-0.038c-1.121-0.415-1.668,0.026-1.971,0.202  c-0.293-0.162-0.623-0.167-0.834-0.167c-0.521-0.016-1.966,0-2.527,0.788c-0.759-0.522-1.63-0.423-3.067,0.21l-1.809-1.005  l-4.295,0.357c-0.382,0.226-1.627,0.071-2.577-0.344c-0.691-0.01-1.588-0.01-2.977,0l-1.694-0.893l-4.001,0.883  c-0.717,0.002-1.988,0.003-3.084,0.198c-1.339,0.931-1.725-0.688-3.692-0.211c-0.32,0.013-0.957,0.015-1.616,0.016  c-0.719,0.069-2.16,0.295-2.752,0.279c-1.072-0.21-1.293-0.771-2.874-0.288c-0.991,0.009-2.252,0.161-3.8,0.176  c-1.311,0-2.45-0.659-4.757-0.168c-0.267,0.001-1.463-0.898-2.006-0.787c-1.758,0.564-2.729,0.31-3.484-0.705  c-0.261-0.182-0.733-0.182-1.181,0c-0.465,0.044-0.882,0.282-1.119,0.607c-0.722,1.97-1.709,1.8-3.894,0.83  c-1.287,0.063-2.954,0.056-4.098-0.873c-1.322,0.649-2.616,0.593-3.856-0.211c-1.397-0.927-3.232,0.338-4.599,0.592  c-1.382,0.269-2.892,0.545-3.842,0.548c-1.004-0.873-3.217-1.183-4.646-0.279c-0.058-0.127-0.164-0.367-0.437-0.733  c-0.336-0.367-0.741-0.635-1.205-0.79c-1.025,0.112-2.322,0.479-3.801,1.129c-1.615,0.673-2.493-1.393-4.799-0.932  c-1.473,0.732-2.983,0.662-3.949,2.364c-0.067,0.297-0.17,0.396-0.602,0.281c-0.866-0.618-1.573-1.011-2.908-1.039  c-0.918,0.222-1.964,0.006-3.531-0.057c-0.787-0.423-1.421,0.04-1.934,0.194c-0.248-0.134-0.31-0.139-0.375-0.139  c-0.929-0.009-2.318,0-2.451,0.816c-1.195-0.509-1.986-0.423-3.553,0.224l-1.629-1.049l-4.034,0.33  c-0.662,0.226-1.914,0.072-2.492-0.316c-1.045-0.008-1.804-0.008-3.337,0l-1.697-0.92l-3.999,0.912  c-0.525,0.002-1.973,0.003-2.706,0.17c-1.405,0.931-2.108-0.688-3.836-0.188c-0.252,0.019-1.193,0.021-1.522,0.021  c-1.057,0.045-2.372,0.266-2.988,0.253c-0.868-0.208-1.223-0.773-2.979-0.269c-0.856,0.016-1.897,0.14-3.802,0.154  c-1.268,0-2.31-0.659-4.387-0.14c-0.549,0.001-1.472-0.928-2.366-0.814c-1.501,0.661-2.893,0.394-3.575-0.706  c-0.448-0.183-0.913-0.183-1.38,0c-0.393,0.043-0.487,0.282-0.511,0.606c-1.3,1.971-2.303,1.802-3.904,0.833  c-1.415,0.087-3.55,0.082-4.492-0.875c-0.9,0.648-2.816,0.592-3.594-0.212c-1.284-0.897-3.567,0.339-4.998,0.592  c-1.445,0.269-2.529,0.573-3.878,0.577c-1.029-0.899-2.63-1.211-4.039-0.309c-0.313-0.126-0.731-0.38-1.058-0.732  c-0.336-0.354-0.746-0.634-1.209-0.79c-0.99,0.112-1.944,0.479-3.814,1.129c-1.594,0.701-2.363-1.364-4.177-0.931  c-1.458,0.733-3.59,0.661-3.915,2.364c-0.238,0.296-0.759,0.395-1.242,0.281c-0.274-0.619-1.588-0.994-2.604-1.013  c-1.218,0.195-2.175,0.003-3.832-0.082c-0.192-0.423-1.428,0.061-1.537,0.192c-0.045-0.107-0.106-0.11-0.409-0.11  c-1.296-0.011-2.085,0-2.453,0.788c-1.051-0.509-2.36-0.423-3.526,0.225l-1.473-1.019l-4.201,0.356  c-1.198,0.226-2.11,0.085-2.575-0.344c-0.997-0.01-2.268-0.01-3.456,0l-1.451-0.906l-3.941,0.896  c-1.167,0.002-2.396,0.003-3.061,0.198c-1.179,0.931-2.405-0.688-3.403-0.211c-0.953,0.013-1.332,0.015-1.898,0.016  c-1.41,0.083-1.916,0.308-3.292,0.295c-0.354-0.226-1.255-0.787-2.476-0.304c-1.396,0.009-2.38,0.176-3.896,0.176  c-1.494,0-2.765-0.659-4.34-0.168c-1.021,0.001-1.632-0.914-2.86-0.773c-0.831,0.578-2.171,0.296-3.402-0.774  c-0.438-0.184-0.918-0.184-1.071,0c-0.042,0.042-0.213,0.281-0.531,0.605c-1.056,1.971-2.58,1.802-3.861,0.832  c-1.269,0.114-3.431,0.111-4.804-0.874c-0.836,0.649-2.511,0.593-3.601-0.212c-1.276-0.869-2.865,0.339-4.462,0.593  c-1.98,0.269-2.519,0.6-3.901,0.604c-1.542-0.929-3.115-1.239-4.408-0.336c-0.451-0.127-0.891-0.382-1.215-0.733  c-0.324-0.354-0.528-0.635-0.559-0.79c-1.585,0.112-2.578,0.479-3.896,1.128c-1.655,0.73-2.933-1.335-4.456-0.931  c-1.515,0.733-3.352,0.662-4.048,2.365c-0.381,0.295-0.879,0.395-0.968,0.281c-0.665-0.619-2.004-0.973-2.367-0.984  c-1.538,0.167-2.83,0.003-3.786-0.111c-1.183-0.367-1.721,0.108-2.181,0.814c-0.611,0.677-1.466,1.084-1.724,1.104  c-1.611-1.598-3.375-1.8-4.598-0.681c-1.322,0.508-3.208,0.267-4.845-0.69c-0.671-0.425-2.247,0.534-3.568-0.433  c-1.043-0.212-2.768,0.22-4.326,0.672c-3.62,0.832-6.443,1.164-9.639,1.674c-1.279-0.51-2.083-1.293-3.675-2.126  c-0.477-0.153-0.591-0.056-0.6,0.283c-1.019,1.66-2.493,1.801-3.93,2.361c-1.388,0.271-1.87-0.109-2.983-1  c-0.865-0.149-1.365-0.77-2.587-0.741c-1.098,0.681-2.231,0.353-3.722-0.847c-0.207-0.155-0.841,0.143-1.488,0.776  c-0.817,0.783-1.049,1.025-2.41,1.35l-0.558,0.254h-1.837c-0.43-0.1-1.492-0.48-1.729-0.82c-0.671,0-1.715,0.005-2.052,0.834  c0,0.028-0.016,0.057-0.029,0.085c-0.175,0-1.31-0.117-1.81-0.339c0.002,0.155,0.002,0.946-0.021,1.486  c-0.897-0.542-2.166-0.88-2.74-0.612c-1.162,0.603-2.831,0.612-3.801,0.612c-0.927,0-1.253-0.104-1.532-0.711  c-0.986-1.058-1.927-1.355-2.831-1.355c-0.86,0.369-2.928,0.046-3.504-0.191c-0.885-0.169-1.2,0.127-1.448,0.191  c-0.835,0.75-1.938,1.581-2.435,1.92c-0.746,0.135-1.223,0.143-1.267,0.146c-0.857-2.065-1.551-2.107-2.166-1.401  c-0.011,0.354-0.239,0.678-0.58,0.959c-0.296-0.154-0.563-0.338-0.83-0.549c-0.844,0.62-2.495,0.521-3.617-0.254  c-0.713-0.816-1.18-0.804-2.393,0.803c-0.268-0.211-0.376-0.38-0.393-0.577c-0.985-0.959-1.673-0.959-2.052,0.803  c-0.65,0.349-1.855,0.97-2.578,0.462c-0.993-0.244-2.436-0.786-3.189-1.815c-2.157,1.541-3.902-0.491-5.602-1.264  c-0.023-0.648-0.806-1.067-1.723-1.071c-0.49-0.081-1.915,0.001-2.185,0.846c-0.67,0.997-1.475,0.998-2.211,0.873  c-1.318-0.916-1.698-1.594-2.783-1.729l-8.471,1.531l-2.94-2.295l-3.996,0.773c-1.29,0.001-1.943,0.004-3.095,0.309  c-1.454,0.931-2.102-0.688-3.677-0.312c-0.237,0.003-0.927,0.004-1.887,0.004c-0.443,0.181-1.87,0.422-2.345,0.407  c-1.313-0.227-1.997-0.787-2.987-0.41c-0.873,0.008-2.83,0.269-3.8,0.282c-1.277,0-3.023-0.659-4.846-0.28  c-0.106,0.001-1.671-0.787-2.086-0.66c-1.709,0.619-2.779,0.296-3.905-0.874c-0.006-0.184-0.422-0.184-0.887,0  c-0.449,0.044-0.886,0.283-0.946,0.606c-0.882,1.969-2.074,1.801-3.907,0.831c-1.48,0.101-3.111,0.098-4.054-0.874  c-1.792,0.649-2.817,0.592-3.771-0.211c-2.049-0.884-3.508,0.338-4.885,0.593c-1.379,0.268-2.886,0.585-3.827,0.59  c-1.168-0.915-3.001-1.226-4.857-0.322c-0.213-0.128-0.217-0.366-0.232-0.731c-0.3-0.354-0.738-0.637-1.203-0.791  c-0.981,0.112-2.685,0.479-3.785,1.127c-1.631,0.717-2.811-1.349-4.645-0.93c-1.776,0.732-3.139,0.662-3.907,2.364  c-0.004,0.296-0.298,0.395-0.806,0.281c-1.24-0.619-1.562-0.985-2.931-0.998c-0.884,0.181-2.243,0.003-3.531-0.098  c-0.548-0.423-1.407,0.07-1.957,0.195c-0.296-0.095-0.62-0.098-0.662-0.098c-0.603-0.016-1.836,0-1.841,0.774  c-1.536-0.509-2.278-0.424-3.844,0.224l-1.857-1.016l-4.152,0.297c-0.491,0.227-1.746,0.071-1.898-0.276  c-1.507-0.006-2.222-0.006-3.773,0l-1.701-0.96l-4.026,0.954c-0.475,0.002-1.942,0.003-2.374,0.127  c-1.851,0.932-2.407-0.686-3.752-0.166c-0.612,0.039-1.586,0.041-2.006,0.042c-0.941,0.022-1.9,0.223-2.872,0.209  c-1.036-0.187-1.223-0.771-2.935-0.236c-0.921,0.027-2.009,0.11-3.851,0.125c-1.28,0-2.307-0.659-3.965-0.101  c-0.986,0.003-2.015-0.969-2.79-0.855c-1.11,0.605-2.657,0.324-3.546-0.705c-0.294-0.184-0.774-0.184-1.048,0  c-0.418,0.042-0.422,0.282-0.584,0.606c-1.356,1.97-2.405,1.802-3.977,0.831c-1.608,0.129-3.237,0.126-4.51-0.874  c-1.289,0.635-2.635,0.537-3.586-0.268c-1.679-0.799-3.243,0.324-4.909,0.594c-1.525,0.252-2.466,0.663-3.907,0.673  c-1.079-0.999-2.904-1.308-4.421-0.392c-0.4-0.155-0.443-0.396-0.712-0.762c-0.34-0.353-0.721-0.62-0.791-0.774  c-1.419,0.098-2.782,0.479-3.837,1.113c-1.954,0.814-2.918-1.251-4.702-0.932c-1.669,0.762-3.11,0.664-4.053,2.366  c-0.027,0.295-0.495,0.408-1.002,0.284c-0.659-0.624-1.563-0.9-2.408-0.903c-1.392,0.098-2.479,0-3.603-0.196  c-0.885-0.365-1.87,0.193-2.392,0.815c-0.394,0.704-0.971,1.085-1.405,1.113c-1.466-1.608-3.195-1.73-4.847-0.692  c-1.375,0.509-2.937,0.283-4.457-0.675c-1.114-0.362-2.391,0.521-3.519-0.364c-1.535-0.296-3.182,0.166-4.732,0.518  c-3.318,0.848-6.612,1.32-9.329,1.674c-1.396-0.36-2.46-1.265-3.672-2.109c-0.48-0.076-0.682-0.049-0.914,0.282  c-0.721,1.659-2.669,1.801-4.082,2.364c-0.929,0.282-1.899-0.114-2.519-0.887c-0.96-0.251-1.874-0.887-2.83-0.858  c-1.053,0.678-2.42,0.354-3.49-0.846c-0.533-0.12-1.309,0.141-1.465,0.789c-0.845,0.911-1.562,0.998-2.434,1.337l-0.971,0.366  h-1.529c-0.766-0.099-1.355-0.479-1.953-0.792c-0.768,0-1.331,0.004-1.655,0.806c-0.014,0.028-0.029,0.057-0.043,0.085  c-0.654,0-1.309-0.117-2.21-0.338c0.126,0.154,0.005,0.945,0,1.514c-0.918-0.57-1.945-0.908-2.855-0.641  c-1.052,0.625-2.335,0.641-3.801,0.641c-0.421-0.001-1.156-0.133-1.519-0.739c-0.562-1.058-1.594-1.327-2.511-1.327  c-1.189,0.34-2.754,0.028-3.81-0.22c-0.406-0.17-1.134,0.127-1.477,0.22c-0.573,0.721-1.549,1.553-2.436,1.89  c-0.237,0.158-0.985,0.172-1.236,0.174c-0.808-2.063-1.184-2.105-1.9-1.271c-0.282,0.353-0.578,0.677-0.859,0.96  c-0.002-0.171-0.111-0.34-0.379-0.552c-1.353,0.552-2.618,0.396-3.56-0.408c-1.227-0.788-1.678-0.782-2.394,0.804  c-0.27-0.212-0.523-0.381-0.577-0.578c-0.903-0.959-1.521-0.959-2.352,0.803c-0.496,0.35-1.563,0.97-2.442,0.462  c-1.085-0.216-2.073-0.786-3.199-1.814c-2.31,1.55-3.754-0.465-5.462-1.267c-0.268-0.646-1.078-1.038-1.491-1.041  c-0.887-0.11-1.941,0-2.592,0.817c-0.772,1.024-1.081,1.025-2.123,0.874c-1.013-0.916-1.845-1.634-2.704-1.708l-8.287,1.511  l-3.422-2.294l-3.918,0.8c-1.078,0.001-1.954,0.002-2.991,0.28c-1.181,0.931-2.024-0.686-3.392-0.284  c-0.586,0.004-1.42,0.005-1.913,0.005c-0.9,0.152-1.843,0.394-2.828,0.379c-0.815-0.227-1.681-0.785-2.565-0.383  c-1.277,0.007-2.741,0.241-3.896,0.257c-1.591,0-3.045-0.659-4.714-0.254c-0.549,0.001-1.618-0.814-2.365-0.688  c-1.379,0.606-2.682,0.282-3.799-0.875c-0.184-0.184-0.676-0.184-0.837,0c-0.26,0.042-0.683,0.282-1.007,0.606  c-0.943,1.97-2.093,1.802-3.872,0.831c-1.251,0.129-2.957,0.126-4.304-0.874c-1.353,0.648-2.535,0.565-3.689-0.268  c-1.73-0.799-3.164,0.324-4.699,0.594c-1.702,0.252-2.73,0.663-3.889,0.673c-1.281-0.999-3.135-1.308-4.626-0.392  c-0.428-0.155-0.482-0.396-0.732-0.762c-0.336-0.367-0.492-0.62-0.717-0.774c-1.491,0.084-2.903,0.464-3.856,1.113  c-1.781,0.814-3.002-1.251-4.882-0.932c-1.536,0.762-2.774,0.664-3.92,2.266c-0.062,0.298-0.415,0.409-0.765,0.283  c-0.878-0.621-1.72-0.802-2.566-0.802c-1.334,0.022-2.589,0-3.531-0.295c-1.02-0.324-1.887,0.291-2.407,0.813  c-0.531,0.691-0.971,1.101-1.406,1.115c-1.449-1.589-3.186-1.634-4.911-0.678c-1.31,0.493-2.792,0.268-4.392-0.69  c-1.112-0.266-2.278,0.522-3.551-0.266c-1.504-0.38-3.178,0.167-4.62,0.519c-3.266,0.848-6.565,1.32-9.281,1.674  c-1.672-0.36-2.465-1.265-3.688-2.109c-0.449-0.076-0.681-0.049-0.872,0.282c-1.021,1.674-2.688,1.827-4.096,2.266  c-0.937,0.282-1.887-0.113-2.811-0.79c-0.646-0.348-1.566-0.982-2.536-0.954c-1.326,0.69-2.437,0.366-3.508-0.83  c-0.557-0.054-1.321,0.124-1.767,0.76c-0.523,1.021-1.242,1.046-2.119,1.35c-1.759,0.859-3.417,0.592-4.536-0.327  c-0.935,0-1.498,0.004-1.815,0.776c-0.007,0.029-0.007,0.044-0.018,0.086c-0.049,0.931-0.678,1.204-1.301,1.204  c-1.308,0.001-2.007-1.458-3.753-0.612c-0.896,0.597-2.259,0.612-3.675,0.612c-0.438,0-1.079-0.119-1.534-0.725  c-0.788-1.044-1.531-1.342-2.713-1.342c-0.976,0.354-2.544,0.028-3.604-0.22c-0.418-0.156-1.048,0.142-1.479,0.22  c-0.762,0.735-1.475,1.567-2.42,1.904c-1.282,0.163-3.034,0.162-4.374-0.846c-1.327,0.621-2.542,0.522-3.806-0.282  c-1.378-0.776-1.63-0.759-2.692,1.291l-6.521,1.789l-4.44,0.002l-2.082-1.792c-2.354,0.202-4.479,0.779-6.667,1.555  c-1.039,0.266-1.532,0.279-1.638-0.423c-0.066-0.817-0.124-1.135-0.208-1.899c-2.614-0.775-5.085,1.815-7.294-0.493  c-1.944,0.339-3.873,0.946-5.73,1.261c-2.095,0.766-3.765-0.937-5.694-0.119c-1.009,0.119-2.444,0.124-3.872,0.136  c-0.656,0-1.261-0.854-2.481-0.347c-1.388,0.329-2.384,0.331-3.856,0.331c-1.557,0.016-2.874-1.432-4.327-0.013  c-1.64-0.487-3.119-2.009-4.821-0.77c-6.67-1.285-10.065-2.111-13.246-0.804c-0.662,1.388-0.877,1.886-1.126,3.404  c-0.075,0.238-1.042-1.218-1.018,0c-2.073,0.021-2.947,0-4.521,0c-0.188-0.104-0.323-0.235-0.378-0.42  c-0.408-0.789-1.438-0.986-1.879-0.423c-1.85,0.862-3.126-0.761-4.122-1.096c-0.75-0.648-1.418-0.789-1.858-0.324  c-0.942,0.443-1.414,0.965-1.447,2.262c-8.571,1.696-14.741-2.936-18.724-0.002c-0.664-0.383-0.908-0.759-1.28-1.107  c-1.21-0.125-1.928-0.014-3.041,0.311c-0.348-0.212-0.47-0.465-0.74-0.789c-1.572-0.23-1.627-0.23-2.554,1.585  c-4.515,3.593-12.278-3.882-13.259,0l-1.563-1.416c-1.447,0.212-2.42,0.605-3.863,1.212c-0.213,0.118-0.328,0.186-0.412,0.204  c-0.104,0-0.35,0-0.603,0c-1.236-0.206-2.359-1.81-3.365-1.092c-1.301,0.45-1.949,0.17-3.011-0.711  c-0.844-0.062-2.396,1.091-3.521-0.012c-1.445-1.389-3.927,0.807-5.16-1.078c-2.177,0.409-4.446,0.423-5.712,2.891  c-0.488,4.621-11.008-2.133-15.443-0.001c-0.164-0.149-0.242-0.33-0.314-0.525c-1.484-1.282-1.564-1.282-3.116,0.525  c-3.04,2.065-1.84,0.015-6.658-0.002c-1.455-1.28-2.839-0.435-3.968-0.019c-0.04,0.006-0.112,0.013-0.186,0.019  c-1.247,0-2.207,0-3.323,0c-0.324-0.277-0.716-0.695-1.195-1.227c-0.675-0.583-1.607-0.585-2.625-0.583  c-1.303,0.145-2.382,0.427-3.88,0.793c-0.121-0.296-0.259-0.635-0.321-0.793c-0.514-2.065-1.281-2.073-2.014-1.192  c-1.506,1.214-3.456,2.196-5.364,1.675c-0.642-0.459-1.833-0.486-2.356-1.335c-1.114-0.959-1.601-0.959-2.214,0.803  c-0.606,0.35-1.649,0.969-2.549,0.448c-1.122-0.399-2.408-0.771-3.215-1.802c-2.159,1.398-3.776-0.636-5.416-1.279  c-0.386-0.647-0.976-1.179-1.769-1.224c-0.636-0.009-1.942,0-2.22,1.013c-0.771,0.841-1.523,0.844-2.314,0.817  c-1.266-0.874-1.737-1.577-2.79-1.833l-8.318,1.693l-3.124-2.295l-4.011,0.604c-0.974,0-1.932,0.034-2.881,0.478  c-1.577,0.931-2.228-0.701-3.687-0.479c-0.495,0.001-1.136,0.001-1.915,0.008c-0.711,0.344-1.916,0.569-2.663,0.555  c-1.084-0.211-1.564-0.785-2.799-0.563c-1.079,0.07-2.502,0.437-3.827,0.437c-1.37,0-2.812-0.659-4.527-0.436  c-0.576,0.012-1.813-0.619-2.458-0.505c-1.356,0.487-2.59,0.169-3.639-0.944c-0.24-0.184-0.502-0.184-0.883,0  c-0.412,0.041-0.688,0.28-0.836,0.604c-1.011,1.971-2.344,1.801-3.894,0.817c-1.546,0.04-3.233,0.027-4.418-0.858  c-1.337,0.647-2.572,0.591-3.762-0.211c-1.524-0.97-3.194,0.337-4.643,0.592c-1.488,0.267-2.661,0.502-3.837,0.505  c-1.351-0.83-3.078-1.14-4.657-0.238c-0.236-0.127-0.52-0.366-0.687-0.733c-0.175-0.352-0.497-0.634-0.903-0.789  c-1.171,0.113-2.537,0.479-3.823,1.128c-1.653,0.632-2.865-1.432-4.52-0.931c-1.752,0.733-3.266,0.664-3.986,2.365  c-0.29,0.296-0.541,0.395-0.87,0.282c-0.928-0.662-1.736-1.071-2.79-1.084c-1.123,0.18-2.5,0.003-3.674-0.111  c-0.879-0.367-1.937,0.11-2.25,0.814c-0.371,0.689-0.859,1.084-1.621,1.104c-1.158-1.584-2.99-1.796-4.486-0.666  c-1.558,0.451-3.021,0.226-4.379-0.663c-1.156-0.465-2.266,0.521-3.706-0.471c-1.371-0.189-3.188,0.246-4.677,0.696  c-3.222,0.832-6.437,1.136-9.15,1.673c-1.506-0.537-2.65-1.278-3.792-2.123c-0.247-0.155-0.611-0.044-0.955,0.28  c-0.742,1.659-2.398,1.801-4.041,2.364c-0.916,0.269-1.938-0.14-2.607-1.042c-0.569-0.151-1.57-0.785-2.484-0.758  c-1.254,0.689-2.718,0.365-3.704-0.845c-0.573-0.155-1.22,0.141-1.636,0.787c-0.496,0.799-1.396,0.999-2.263,1.336  c-1.497,0.79-3.199,0.48-4.563-0.535c-0.613-0.002-1.33,0.007-1.504,0.889c-0.007,0.028-0.007,0.042-0.016,0.085  c-0.197,0.929-0.851,1.091-1.479,1.092c-1.302,0.005-2.079-1.347-3.525-0.501c-1.26,0.496-2.576,0.5-3.852,0.501  c-0.673-0.001-1.246-0.02-1.813-0.613c-0.652-1.043-1.566-1.451-2.522-1.451c-1.265,0.479-2.551,0.141-3.595-0.109  c-0.645-0.155-1.254,0.094-1.699,0.106c-0.539,0.849-1.285,1.68-2.193,2.018c-0.574,0.045-0.97,0.048-1.579,0.049  c-0.507-2.066-1.012-2.075-1.898-1.29c-0.15,0.339-0.309,0.678-0.506,0.96c-0.254-0.17-0.46-0.353-0.603-0.563  c-1.169,0.579-2.464,0.479-3.675-0.282c-1.136-0.882-1.379-0.845-2.205,0.804c-0.146-0.212-0.279-0.381-0.521-0.579  c-1.051-0.958-1.512-0.958-2.417,0.805c-0.39,0.349-1.42,0.969-2.32,0.461c-1.222-0.314-2.37-0.785-3.421-1.814  c-2.146,1.49-3.644-0.561-5.185-1.265c-0.606-0.648-1.049-1.13-1.722-1.142c-0.922-0.026-1.934,0.001-2.282,0.915  c-0.881,0.929-1.494,0.93-2.496,0.873c-1.007-0.915-1.56-1.635-2.608-1.792l-8.285,1.597l-3.181-2.294l-3.975,0.701  c-0.97,0.001-1.954,0.008-2.896,0.379c-1.552,0.932-2.355-0.687-3.641-0.381c-0.67,0.002-1.224,0.003-1.917,0.004  c-0.946,0.252-1.919,0.491-2.894,0.477c-0.893-0.225-1.369-0.786-2.636-0.48c-1.237,0.016-2.466,0.34-3.803,0.354  c-1.499,0-2.805-0.659-4.529-0.351c-0.756,0.003-1.779-0.718-2.63-0.59c-1.199,0.572-2.541,0.281-3.646-0.875  c-0.307-0.183-0.564-0.183-0.878,0c-0.374,0.042-0.593,0.282-0.76,0.606c-1.088,1.97-2.49,1.8-3.889,0.823  c-1.589,0.047-3.313,0.035-4.594-0.864c-1.146,0.646-2.469,0.591-3.723-0.213c-1.401-0.954-3.092,0.338-4.6,0.592  c-1.584,0.268-2.587,0.518-3.847,0.521c-1.4-0.845-3.06-1.154-4.562-0.253c-0.252-0.127-0.658-0.366-0.84-0.732  c-0.172-0.366-0.412-0.635-0.839-0.791c-1.244,0.114-2.462,0.48-3.825,1.13c-1.629,0.646-2.87-1.418-4.449-0.931  c-1.737,0.732-3.348,0.662-4.006,2.365c-0.379,0.296-0.662,0.394-0.917,0.282c-0.854-0.62-1.753-1.025-2.668-1.067  c-1.19,0.25-2.58,0.008-3.703-0.038c-0.698-0.415-1.496,0.026-1.955,0.202c-0.167-0.162-0.371-0.167-0.63-0.167  c-0.821-0.016-1.785,0-2.345,0.788c-1.049-0.522-2.176-0.423-3.202,0.21l-1.887-1.005l-4.21,0.357  c-0.811,0.226-1.672,0.071-2.454-0.344c-1.004-0.01-2.115-0.01-3.135,0l-1.815-0.893l-3.966,0.883  c-0.98,0.002-1.962,0.003-2.906,0.198c-1.399,0.931-2.192-0.688-3.603-0.211c-0.545,0.013-1.255,0.015-1.915,0.016  c-0.904,0.069-1.858,0.295-2.847,0.279c-0.806-0.21-1.449-0.771-2.585-0.288c-1.259,0.009-2.595,0.161-3.848,0.176  c-1.581,0-2.868-0.659-4.611-0.168c-0.664,0.001-1.73-0.898-2.486-0.787c-1.266,0.564-2.515,0.31-3.544-0.705  c-0.242-0.182-0.661-0.182-0.917,0c-0.259,0.044-0.598,0.282-0.834,0.607c-1.06,1.97-2.307,1.8-3.885,0.83  c-1.405,0.063-3.182,0.056-4.415-0.873c-1.286,0.649-2.589,0.593-3.729-0.211c-1.576-0.927-3.087,0.338-4.717,0.592  c-1.567,0.269-2.593,0.545-3.863,0.548c-1.268-0.873-3.019-1.183-4.517-0.279c-0.328-0.127-0.566-0.367-0.748-0.733  c-0.308-0.354-0.568-0.635-0.831-0.79c-1.336,0.112-2.65,0.479-3.856,1.129c-1.762,0.673-2.889-1.393-4.595-0.932  c-1.623,0.732-3.201,0.662-3.997,2.364c-0.219,0.297-0.57,0.396-0.935,0.281c-0.835-0.618-1.701-1.011-2.549-1.039  c-1.303,0.222-2.545,0.006-3.646-0.057c-0.79-0.423-1.648,0.04-1.954,0.194c-0.188-0.134-0.488-0.139-0.685-0.139  c-0.886-0.009-1.85,0-2.237,0.816c-1.062-0.509-2.245-0.423-3.323,0.224l-1.69-1.049l-4.34,0.33  c-0.771,0.226-1.548,0.072-2.313-0.316c-1.005-0.008-2.134-0.008-3.153,0l-1.811-0.92l-3.97,0.912  c-0.974,0.002-1.946,0.003-2.905,0.17c-1.495,0.931-2.294-0.688-3.607-0.188c-0.655,0.019-1.241,0.021-1.921,0.021  c-0.94,0.045-1.898,0.266-2.879,0.253c-0.874-0.208-1.401-0.773-2.627-0.269c-1.242,0.016-2.496,0.14-3.792,0.154  c-1.533,0-2.828-0.659-4.571-0.14c-0.731,0.001-1.754-0.928-2.595-0.814c-1.215,0.661-2.541,0.394-3.667-0.706  c-0.318-0.183-0.593-0.183-0.891,0c-0.352,0.043-0.609,0.282-0.8,0.606c-1.048,1.971-2.431,1.802-3.877,0.833  c-1.548,0.087-3.28,0.082-4.55-0.875c-1.184,0.648-2.496,0.592-3.726-0.212c-1.452-0.897-3.097,0.339-4.612,0.592  c-1.589,0.269-2.597,0.573-3.847,0.577c-1.384-0.899-3.06-0.163-4.06,0.739"
      />
    </svg>